<mxfile host="65bd71144e">
    <diagram id="lsTOHt_OeRio8Ey1VvIS" name="Page-1">
        <mxGraphModel dx="835" dy="668" grid="1" gridSize="10" guides="1" tooltips="1" connect="1" arrows="1" fold="1" page="1" pageScale="1" pageWidth="827" pageHeight="1169" math="0" shadow="0">
            <root>
                <mxCell id="0"/>
                <mxCell id="1" parent="0"/>
                <mxCell id="2" value="&lt;font style=&quot;font-size: 12px;&quot; color=&quot;#000000&quot; data-font-src=&quot;https://fonts.googleapis.com/css?family=Source+Sans+Pro&quot; face=&quot;Source Sans Pro&quot;&gt;How does each method similar to one another&lt;/font&gt;" style="rounded=1;whiteSpace=wrap;html=1;fillColor=#b0e3e6;strokeColor=#0e8088;fontSize=12;" parent="1" vertex="1">
                    <mxGeometry x="40" y="40" width="280" height="80" as="geometry"/>
                </mxCell>
                <mxCell id="6" value="&lt;font style=&quot;font-size: 12px;&quot; color=&quot;#000000&quot; data-font-src=&quot;https://fonts.googleapis.com/css?family=Source+Sans+Pro&quot; face=&quot;Source Sans Pro&quot;&gt;How does each method perform on the curated dataset&lt;br&gt;&lt;/font&gt;" style="rounded=1;whiteSpace=wrap;html=1;fillColor=#b0e3e6;strokeColor=#0e8088;fontSize=12;" parent="1" vertex="1">
                    <mxGeometry x="250" y="280" width="260" height="70" as="geometry"/>
                </mxCell>
                <mxCell id="7" value="&lt;font style=&quot;font-size: 12px;&quot; color=&quot;#000000&quot; data-font-src=&quot;https://fonts.googleapis.com/css?family=Source+Sans+Pro&quot; face=&quot;Source Sans Pro&quot;&gt;How does each method perform on the perturbed dataset?&lt;br&gt;&lt;/font&gt;" style="rounded=1;whiteSpace=wrap;html=1;fillColor=#b0e3e6;strokeColor=#0e8088;fontSize=12;" parent="1" vertex="1">
                    <mxGeometry x="40" y="160" width="260" height="70" as="geometry"/>
                </mxCell>
                <mxCell id="8" value="&lt;font style=&quot;font-size: 12px;&quot; color=&quot;#000000&quot; data-font-src=&quot;https://fonts.googleapis.com/css?family=Source+Sans+Pro&quot; face=&quot;Source Sans Pro&quot;&gt;How does each method perform on the perturbed dataset?&lt;br&gt;&lt;/font&gt;" style="rounded=1;whiteSpace=wrap;html=1;fillColor=#b0e3e6;strokeColor=#0e8088;fontSize=12;" parent="1" vertex="1">
                    <mxGeometry x="250" y="360" width="260" height="70" as="geometry"/>
                </mxCell>
            </root>
        </mxGraphModel>
    </diagram>
</mxfile>